<svg width="20" height="12" viewBox="0 0 20 12" fill="none" xmlns="http://www.w3.org/2000/svg">
<path d="M4.6619 8.02752L4.39507 8.3036V1.31891C4.39507 1.07485 4.29814 0.840781 4.12559 0.668201C3.95304 0.495621 3.71902 0.398666 3.475 0.398666C3.23098 0.398666 2.99695 0.495621 2.8244 0.668201C2.65185 0.840781 2.55492 1.07485 2.55492 1.31891V8.3036L2.2881 8.02752C2.11484 7.85424 1.87986 7.75688 1.63484 7.75688C1.38982 7.75688 1.15484 7.85424 0.981586 8.02752C0.808332 8.20081 0.710999 8.43583 0.710999 8.6809C0.710999 8.92596 0.808332 9.16099 0.981586 9.33427L2.82174 11.1748C2.90924 11.2585 3.01243 11.3242 3.12537 11.368C3.2355 11.4167 3.35458 11.4419 3.475 11.4419C3.59541 11.4419 3.71449 11.4167 3.82463 11.368C3.93757 11.3242 4.04075 11.2585 4.12825 11.1748L5.96841 9.33427C6.05419 9.24847 6.12224 9.14661 6.16867 9.0345C6.2151 8.9224 6.23899 8.80224 6.23899 8.6809C6.23899 8.55955 6.2151 8.4394 6.16867 8.32729C6.12224 8.21519 6.05419 8.11332 5.96841 8.02752C5.88262 7.94172 5.78078 7.87366 5.66869 7.82722C5.5566 7.78078 5.43647 7.75688 5.31515 7.75688C5.19383 7.75688 5.0737 7.78078 4.96161 7.82722C4.84953 7.87366 4.74768 7.94172 4.6619 8.02752ZM8.99546 2.23916H18.1962C18.4403 2.23916 18.6743 2.14221 18.8468 1.96963C19.0194 1.79705 19.1163 1.56298 19.1163 1.31891C19.1163 1.07485 19.0194 0.840781 18.8468 0.668201C18.6743 0.495621 18.4403 0.398666 18.1962 0.398666H8.99546C8.75144 0.398666 8.51742 0.495621 8.34487 0.668201C8.17232 0.840781 8.07538 1.07485 8.07538 1.31891C8.07538 1.56298 8.17232 1.79705 8.34487 1.96963C8.51742 2.14221 8.75144 2.23916 8.99546 2.23916ZM18.1962 4.99991H8.99546C8.75144 4.99991 8.51742 5.09686 8.34487 5.26944C8.17232 5.44202 8.07538 5.67609 8.07538 5.92015C8.07538 6.16422 8.17232 6.39829 8.34487 6.57087C8.51742 6.74345 8.75144 6.8404 8.99546 6.8404H18.1962C18.4403 6.8404 18.6743 6.74345 18.8468 6.57087C19.0194 6.39829 19.1163 6.16422 19.1163 5.92015C19.1163 5.67609 19.0194 5.44202 18.8468 5.26944C18.6743 5.09686 18.4403 4.99991 18.1962 4.99991ZM18.1962 9.60115H8.99546C8.75144 9.60115 8.51742 9.6981 8.34487 9.87068C8.17232 10.0433 8.07538 10.2773 8.07538 10.5214C8.07538 10.7655 8.17232 10.9995 8.34487 11.1721C8.51742 11.3447 8.75144 11.4416 8.99546 11.4416H18.1962C18.4403 11.4416 18.6743 11.3447 18.8468 11.1721C19.0194 10.9995 19.1163 10.7655 19.1163 10.5214C19.1163 10.2773 19.0194 10.0433 18.8468 9.87068C18.6743 9.6981 18.4403 9.60115 18.1962 9.60115Z" fill="#6B5D53"/>
</svg>
