
<svg width="35" height="34" viewBox="0 0 35 34" fill="none" xmlns="http://www.w3.org/2000/svg">
<path d="M33.8963 16.6667C33.8963 25.7277 26.3701 33.0833 17.0732 33.0833C7.77628 33.0833 0.25 25.7277 0.25 16.6667C0.25 7.60564 7.77628 0.25 17.0732 0.25C26.3701 0.25 33.8963 7.60564 33.8963 16.6667Z" fill="#D9D9D9" fill-opacity="0.06" stroke="#6B5D53" stroke-width="0.5"/>
<path d="M21.4197 17.1396V17.228L21.503 17.2574C21.9136 17.4026 22.2692 17.6712 22.5212 18.0264C22.773 18.3815 22.9089 18.8058 22.9102 19.2412C22.9102 19.2413 22.9102 19.2414 22.9102 19.2415L22.9102 20.7317C22.9102 20.8962 22.8449 21.054 22.7285 21.1703C22.6122 21.2866 22.4544 21.352 22.2899 21.352H19.9498H19.8543L19.8292 21.4442C19.6648 22.0492 19.3058 22.5833 18.8078 22.9641C18.3097 23.3449 17.7001 23.5512 17.0731 23.5512C16.4462 23.5512 15.8366 23.3449 15.3385 22.9641C14.8404 22.5833 14.4815 22.0492 14.3171 21.4442L14.292 21.352H14.1964H11.8563C11.6918 21.352 11.5341 21.2866 11.4178 21.1703C11.3014 21.054 11.2361 20.8962 11.2361 20.7317V19.2414C11.2373 18.8059 11.3732 18.3816 11.6251 18.0264C11.8771 17.6712 12.2327 17.4026 12.6433 17.2574L12.7266 17.228V17.1396L12.7266 14.7698C12.7266 14.7697 12.7266 14.7697 12.7266 14.7696C12.7277 13.7433 13.0919 12.7504 13.7548 11.9668C14.4178 11.1832 15.3367 10.6595 16.3487 10.4884L16.4529 10.4708V10.3652V9.55284C16.4529 9.38834 16.5182 9.23058 16.6346 9.11426C16.7509 8.99793 16.9086 8.93259 17.0731 8.93259C17.2376 8.93259 17.3954 8.99793 17.5117 9.11426C17.6281 9.23058 17.6934 9.38834 17.6934 9.55284V10.3652V10.4708L17.7976 10.4884C18.8096 10.6595 19.7285 11.1832 20.3914 11.9668C21.0544 12.7504 21.4186 13.7434 21.4197 14.7698V17.1396ZM20.0542 17.1304H20.1792V17.0054V14.7696C20.1792 13.9459 19.8519 13.1558 19.2694 12.5734C18.6869 11.9909 17.8969 11.6636 17.0731 11.6636C16.2494 11.6636 15.4593 11.9909 14.8768 12.5734C14.2944 13.1558 13.9671 13.9459 13.9671 14.7696V17.0054V17.1304H14.0921H20.0542ZM15.7913 21.352H15.5748L15.683 21.5395C15.824 21.7836 16.0264 21.9867 16.2701 22.1284C16.5139 22.2701 16.7905 22.3455 17.0724 22.3472L17.0739 22.3472C17.3558 22.3455 17.6324 22.2701 17.8761 22.1284C18.1199 21.9867 18.3223 21.7836 18.4632 21.5395L18.5715 21.352H18.355H15.7913ZM21.5447 20.1114H21.6697V19.9864V19.2412C21.6697 19.0104 21.578 18.789 21.4148 18.6258C21.2516 18.4626 21.0302 18.3709 20.7994 18.3709H13.3469C13.116 18.3709 12.8947 18.4626 12.7315 18.6258C12.5683 18.789 12.4766 19.0104 12.4766 19.2412V19.9864V20.1114H12.6016H21.5447Z" fill="#6B5D53" stroke="white" stroke-width="0.25"/>
</svg>
