<svg width="33" height="29" viewBox="0 0 33 29" fill="none" xmlns="http://www.w3.org/2000/svg">
<path d="M29.8512 24.5171L24.75 20.0704C26.7301 17.9007 27.6891 15.1468 27.4296 12.3749C27.1702 9.60299 25.712 7.02378 23.3551 5.16761C20.9981 3.31144 17.9215 2.31941 14.7578 2.39548C11.594 2.47156 8.58373 3.60997 6.34581 5.57663C4.10789 7.54329 2.81246 10.1887 2.72589 12.9689C2.63932 15.7492 3.76819 18.4529 5.88038 20.5242C7.99257 22.5954 10.9275 23.8768 14.0818 24.1048C17.236 24.3328 20.3698 23.4901 22.8387 21.75L27.8987 26.1967C28.0266 26.3099 28.1786 26.3998 28.3462 26.4612C28.5138 26.5225 28.6935 26.5541 28.875 26.5541C29.0565 26.5541 29.2362 26.5225 29.4038 26.4612C29.5713 26.3998 29.7234 26.3099 29.8512 26.1967C30.0991 25.9714 30.2376 25.6702 30.2376 25.3569C30.2376 25.0435 30.0991 24.7424 29.8512 24.5171ZM15.125 21.75C13.2213 21.75 11.3604 21.2539 9.77763 20.3245C8.1948 19.3951 6.96114 18.0741 6.23265 16.5285C5.50416 14.983 5.31355 13.2823 5.68493 11.6415C6.05631 10.0008 6.97301 8.49364 8.31909 7.31072C9.66517 6.1278 11.3802 5.32222 13.2472 4.99586C15.1143 4.66949 17.0496 4.83699 18.8083 5.47718C20.5671 6.11738 22.0703 7.2015 23.1279 8.59247C24.1855 9.98343 24.75 11.6188 24.75 13.2917C24.75 15.535 23.7359 17.6864 21.9309 19.2726C20.1259 20.8589 17.6777 21.75 15.125 21.75Z" fill="white"/>
</svg>
