<svg width="343" height="172" viewBox="0 0 343 172" fill="none" xmlns="http://www.w3.org/2000/svg">
<rect x="328" y="61" width="14" height="50" rx="7" fill="white" stroke="#E4E4E4"/>
<rect x="53.5" y="1" width="50" height="14" rx="7" fill="white" stroke="#E4E4E4"/>
<rect x="115.5" y="1" width="50" height="14" rx="7" fill="white" stroke="#E4E4E4"/>
<rect x="177.5" y="1" width="50" height="14" rx="7" fill="white" stroke="#E4E4E4"/>
<rect x="239.5" y="1" width="50" height="14" rx="7" fill="white" stroke="#E4E4E4"/>
<rect x="21.5" y="21.5" width="300" height="129" rx="15.5" fill="white"/>
<rect x="21.5" y="21.5" width="300" height="129" rx="15.5" stroke="#E4E4E4"/>
<circle cx="172" cy="86" r="43" fill="#ECF6FF"/>
<rect x="53.5" y="157" width="50" height="14" rx="7" fill="white" stroke="#E4E4E4"/>
<rect x="115.5" y="157" width="50" height="14" rx="7" fill="white" stroke="#E4E4E4"/>
<rect x="177.5" y="157" width="50" height="14" rx="7" fill="white" stroke="#E4E4E4"/>
<rect x="239.5" y="157" width="50" height="14" rx="7" fill="white" stroke="#E4E4E4"/>
<rect x="1" y="61" width="14" height="50" rx="7" fill="white" stroke="#E4E4E4"/>
</svg>
